<?xml version="1.0" standalone="no"?>
<!DOCTYPE svg PUBLIC "-//W3C//DTD SVG 20010904//EN"
 "http://www.w3.org/TR/2001/REC-SVG-20010904/DTD/svg10.dtd">
<svg version="1.0" xmlns="http://www.w3.org/2000/svg"
 width="653.000000pt" height="653.000000pt" viewBox="0 0 653.000000 653.000000"
 preserveAspectRatio="xMidYMid meet">
<metadata>
Created by potrace 1.14, written by Peter Selinger 2001-2017
</metadata>
<g transform="translate(0.000000,653.000000) scale(0.100000,-0.100000)"
fill="#000000" stroke="none">
<path d="M3057 6413 c-2 -1 -50 -7 -147 -18 -30 -3 -71 -8 -90 -10 -19 -3 -66
-10 -103 -15 -71 -10 -162 -30 -257 -56 -112 -31 -285 -88 -295 -96 -5 -4 -15
-8 -22 -8 -7 0 -41 -13 -75 -28 -35 -16 -79 -34 -98 -42 -19 -7 -39 -17 -45
-22 -5 -4 -17 -8 -27 -8 -10 0 -18 -4 -18 -10 0 -5 -7 -10 -15 -10 -8 0 -15
-4 -15 -10 0 -5 -7 -10 -15 -10 -20 0 -55 -20 -77 -44 -10 -11 -21 -17 -24
-13 -7 6 -187 -101 -192 -115 -2 -4 -8 -8 -13 -8 -6 0 -19 -8 -30 -18 -10 -11
-32 -25 -47 -33 -30 -16 -54 -34 -88 -66 -13 -13 -27 -23 -31 -23 -4 0 -21
-12 -38 -28 -16 -15 -55 -47 -85 -72 -63 -52 -251 -240 -325 -325 -27 -32 -56
-64 -63 -71 -6 -7 -12 -17 -12 -23 0 -5 -6 -14 -13 -18 -12 -8 -36 -40 -117
-153 -22 -30 -44 -61 -50 -67 -6 -7 -8 -13 -4 -13 4 0 0 -8 -9 -18 -10 -10
-14 -22 -10 -25 3 -4 2 -7 -4 -7 -6 0 -16 -13 -23 -30 -7 -16 -16 -30 -21 -30
-5 0 -8 -3 -7 -7 3 -9 -32 -64 -45 -74 -5 -3 -8 -8 -7 -10 4 -9 -33 -89 -41
-89 -5 0 -8 -3 -7 -7 1 -5 -13 -40 -31 -80 -18 -40 -33 -75 -31 -79 1 -4 -2
-10 -7 -13 -4 -3 -14 -22 -22 -41 -14 -37 -122 -345 -120 -345 1 0 -4 -18 -10
-41 -6 -23 -12 -53 -13 -68 -1 -14 -5 -26 -9 -26 -3 0 -10 -21 -13 -47 -4 -27
-9 -57 -12 -68 -2 -11 -8 -51 -14 -90 -5 -38 -12 -86 -15 -105 -11 -73 -14
-109 -20 -225 -3 -66 -8 -130 -10 -142 -2 -13 1 -25 6 -29 6 -3 6 -10 1 -17
-5 -7 -8 -21 -6 -32 2 -11 5 -58 8 -105 8 -139 22 -258 47 -390 6 -30 12 -66
13 -80 4 -29 15 -78 23 -100 3 -8 7 -25 8 -38 1 -12 8 -41 15 -65 27 -91 64
-204 77 -237 8 -20 15 -42 17 -50 1 -8 8 -28 16 -45 7 -16 16 -39 21 -50 4
-11 19 -46 33 -78 14 -31 27 -60 28 -65 1 -4 17 -33 35 -64 18 -31 33 -61 33
-67 0 -6 5 -11 12 -11 6 0 9 -3 5 -6 -3 -3 5 -23 18 -44 13 -21 21 -41 18 -44
-4 -3 -1 -6 5 -6 7 0 12 -7 12 -15 0 -8 5 -15 10 -15 6 0 10 -5 10 -11 0 -9
70 -118 94 -146 31 -35 36 -43 29 -43 -4 0 -3 -4 3 -8 6 -4 25 -28 43 -54 17
-27 36 -48 41 -48 6 0 10 -6 10 -13 0 -7 8 -20 18 -29 9 -10 33 -36 52 -58 19
-23 60 -68 90 -100 31 -32 70 -74 87 -92 41 -44 110 -108 117 -108 3 0 31 -26
63 -57 32 -32 71 -64 86 -72 15 -8 27 -18 27 -23 0 -4 7 -8 15 -8 7 0 18 -6
22 -14 4 -7 23 -21 41 -30 18 -9 30 -21 27 -26 -4 -6 2 -10 13 -10 10 0 27 -9
37 -20 10 -11 22 -20 27 -20 5 0 18 -9 30 -20 12 -11 30 -20 40 -20 11 0 17
-4 14 -9 -4 -5 16 -19 44 -32 27 -12 50 -26 50 -31 0 -4 7 -8 15 -8 8 0 15 -4
15 -10 0 -5 3 -9 8 -9 12 3 72 -25 72 -33 0 -4 5 -8 12 -8 6 0 57 -22 112 -49
56 -27 119 -55 141 -62 22 -8 42 -16 45 -19 3 -3 10 -6 15 -7 20 -5 141 -46
170 -59 17 -7 42 -15 55 -17 14 -3 70 -17 125 -32 55 -15 116 -30 135 -32 19
-3 64 -11 100 -20 36 -8 94 -17 130 -19 36 -3 76 -9 90 -13 36 -12 552 -11
630 0 36 6 92 15 125 20 33 6 74 12 90 13 17 2 37 6 45 9 8 3 35 8 60 11 25 2
63 10 85 16 45 13 102 27 156 39 19 4 50 15 69 24 18 9 41 17 51 17 10 0 21 4
24 10 3 5 15 10 26 10 10 0 19 5 19 10 0 6 10 10 23 10 13 0 42 9 65 20 22 11
48 20 57 20 8 0 15 5 15 10 0 6 9 10 20 10 12 0 32 7 45 16 14 9 25 13 25 10
0 -4 9 1 20 11 10 10 36 25 57 32 21 8 56 25 78 39 22 14 42 25 45 24 8 -2
106 55 122 71 8 9 23 17 34 19 18 3 28 9 82 55 15 13 33 23 39 23 7 0 18 9 25
20 7 11 21 20 30 20 10 0 17 5 15 11 -1 6 14 20 33 31 19 11 37 24 38 29 2 5
8 9 12 9 9 0 58 41 117 98 13 12 25 22 27 22 13 0 296 297 296 311 0 5 4 9 9
9 5 0 28 26 52 57 23 32 46 59 51 61 4 2 8 12 8 23 0 10 7 19 15 19 8 0 15 4
15 10 0 5 10 20 23 32 12 13 23 30 25 38 2 8 11 22 20 30 9 9 18 22 20 30 2 7
11 21 20 29 9 9 18 23 20 31 2 8 9 22 17 30 7 8 25 40 40 70 15 30 32 58 37
61 5 3 9 8 9 10 -2 13 13 49 20 49 5 0 9 3 8 8 -2 15 14 52 22 52 5 0 9 6 9
13 0 7 12 38 26 68 15 30 27 59 28 64 1 6 4 15 8 20 3 6 20 48 38 95 17 47 38
100 46 118 7 18 14 45 14 60 0 16 4 32 9 37 4 6 18 48 31 95 25 94 24 89 35
145 4 22 10 49 12 60 5 21 16 88 28 165 3 25 8 56 10 70 16 107 23 463 11 600
-12 136 -17 184 -21 190 -2 4 -7 29 -10 57 -3 27 -8 60 -11 74 -2 13 -11 59
-20 101 -8 43 -21 95 -29 118 -8 22 -12 40 -9 40 2 0 -2 16 -10 35 -9 20 -16
39 -17 43 -10 44 -33 117 -39 127 -4 6 -12 30 -19 55 -13 43 -22 65 -71 175
-47 103 -54 120 -52 128 1 4 -2 7 -7 7 -5 0 -12 14 -16 30 -4 17 -10 30 -15
30 -4 0 -13 12 -19 28 -6 15 -15 34 -20 42 -5 8 -26 44 -47 80 -21 36 -41 67
-46 68 -4 2 -8 8 -8 14 0 6 -11 26 -25 44 -14 18 -25 37 -25 42 0 5 -9 17 -20
27 -11 10 -17 22 -14 26 3 5 1 9 -3 9 -5 0 -29 28 -53 62 -25 34 -50 67 -57
73 -7 7 -9 15 -6 19 4 3 -1 6 -10 6 -10 0 -17 4 -17 9 0 11 -39 55 -172 193
-54 56 -98 105 -98 110 0 4 -6 8 -13 8 -7 0 -22 10 -33 23 -11 12 -35 33 -54
47 -19 14 -49 40 -68 58 -18 17 -36 32 -38 32 -3 0 -68 47 -114 83 -8 7 -28
18 -43 26 -15 8 -27 18 -27 23 0 4 -7 8 -15 8 -8 0 -15 5 -15 10 0 6 -5 10
-10 10 -6 0 -38 18 -71 40 -33 22 -66 40 -74 40 -7 0 -15 4 -17 8 -6 14 -117
72 -138 72 -11 0 -20 4 -20 10 0 11 -124 70 -146 70 -8 0 -14 5 -14 10 0 6 -9
10 -19 10 -11 0 -22 4 -25 8 -3 5 -38 19 -78 31 -40 13 -91 32 -114 42 -23 10
-50 19 -61 19 -10 0 -24 5 -31 12 -7 7 -12 9 -12 5 0 -3 -12 -2 -27 4 -16 6
-39 13 -53 15 -24 5 -47 11 -123 34 -18 6 -48 10 -65 10 -18 0 -32 4 -32 8 0
4 -20 8 -45 9 -25 1 -50 5 -57 9 -7 4 -39 9 -73 11 -33 2 -73 6 -90 9 -56 11
-130 15 -328 17 -109 1 -199 1 -200 0z"/>
</g>
</svg>
